<svg id="Layer_2" data-name="Layer 2" xmlns="http://www.w3.org/2000/svg" viewBox="0 0 1361.12 1341"><defs><style>.cls-1{fill:#fefefe;}.cls-2{fill:#fdfdfd;}.cls-3{fill:#d7d7d7;}.cls-4{fill:silver;}.cls-5{fill:#0a0a0a;}.cls-6{fill:#dadada;}.cls-7{fill:#6c6c6c;}.cls-8{fill:#f2f2f2;}.cls-9{fill:#cbcbcb;}.cls-10{fill:#81b833;}.cls-11{fill:#b87233;}.cls-12{fill:#518900;}.cls-13{fill:#331f0e;}.cls-14{fill:#100904;}.cls-15{fill:#3b3b3b;}.cls-16{fill:#989898;}.cls-17{fill:#737373;}.cls-18{fill:#33200e;}.cls-19{fill:#44611b;}.cls-20{fill:#c1c1c1;}.cls-21{fill:#a9a9a9;}.cls-22{fill:#131c08;}.cls-23{fill:#0c1500;}.cls-24{fill:#141414;}.cls-25{fill:#71a12d;}.cls-26{fill:#472c13;}.cls-27{fill:#424242;}.cls-28{fill:#784a21;}.cls-29{fill:#e0e0e0;}.cls-30{fill:#467600;}.cls-31{fill:#36210f;}.cls-32{fill:#111807;}.cls-33{fill:#121f00;}.cls-34{fill:#587d23;}.cls-35{fill:#8f5828;}.cls-36{fill:#264000;}.cls-37{fill:#2d4d00;}.cls-38{fill:#c9c9c9;}.cls-39{fill:#764921;}.cls-40{fill:#5d391a;}.cls-41{fill:#2f1d0d;}.cls-42{fill:#373737;}.cls-43{fill:#396100;}.cls-44{fill:#527520;}.cls-45{fill:#18230a;}.cls-46{fill:#8d5727;}.cls-47{fill:#5d8424;}.cls-48{fill:#b9b9b9;}.cls-49{fill:#b6b6b6;}.cls-50{fill:#010000;}.cls-51{fill:#010100;}.cls-52{fill:#030201;}.cls-53{fill:#a2642d;}.cls-54{fill:#895426;}.cls-55{fill:#4b2e15;}.cls-56{fill:#523217;}.cls-57{fill:#865325;}.cls-58{fill:#965c29;}</style></defs><path class="cls-1" d="M684.18,1363.88q-337.9,0-675.83.12c-4.15,0-4.6-1.16-4.6-4.82q.13-665.78,0-1331.54c0-4.15,1.16-4.6,4.82-4.6q675.84.13,1351.66,0c4.15,0,4.61,1.16,4.61,4.82q-.13,665.78,0,1331.54c0,4.14-1.16,4.6-4.82,4.6Q1022.11,1363.82,684.18,1363.88Z" transform="translate(-3.71 -23)"/><path d="M789.26,1081.13l1.54,1.64a77.05,77.05,0,0,0,6.81,5.42,9.4,9.4,0,0,1-.45,15,17.36,17.36,0,0,1-10.73,3.43c-19.5-.06-39,.09-58.52-.05-23-.17-46.06.75-69.09.51-4.27,0-8.54.94-12.84.07-2.44-.5-2.79,1-2.77,3,0,5.52-.34,11.05-.34,16.55,0,18.89-.56,37.77-.67,56.65-.09,15.49-.5,31-.86,46.47-1.7,3.92-.79,8-.92,12.09-.15,4.37,0,8.75,0,13.13,0,3.7,0,7.4,0,11.1-.14,3.73.25,7.48-.28,11.2-.66,5.17.89,10.48-1,15.58q-.51,27.87-1,55.74c-.15,9.66-.1,9.65-9.51,9.62l-451.49-1.48c-5.73,0-6.87-1.24-5.29-7a10.4,10.4,0,0,0,.12-5.3c-1.56-6.68-.72-13.43-.77-20.17q-.6-87.55-1.33-175.1c0-3.69,0-7.37,0-11,1.07-5.56-.33-11.23.77-16.79a15.63,15.63,0,0,1,.26-1.82c1-3.72-.15-5-4.25-4.85-22.58.54-45.17.77-67.75,1.1l-62.68.92a50.55,50.55,0,0,1-11.43-1.07c-4-.84-7-2.94-7.81-6.87-.88-4.32-1.59-9.06,2.47-12.44,10.72-8.92,19.43-19.76,29-29.82,9-9.53,17.46-19.57,26.24-29.29s17.79-19.68,26.78-29.42c8.68-9.4,17.43-18.74,26.12-28.13,8.39-9.06,16.84-18.06,25.24-27.12,9-9.73,18.15-19.36,27.24-29,8.35-8.88,16.79-17.67,25.17-26.52q13.7-14.46,27.36-28.93,12.74-13.43,25.47-26.86,13.08-13.76,26.1-27.56,13.2-14,26.44-27.9c13.34-14,26.69-28,39.89-42.2q12.79-13.69,25.85-27.17c7.84-8.1,16.35-15.56,24.8-23a35.61,35.61,0,0,1,8.94-5.46c6.42-2.9,11.95-1.38,16.62,3.7,13.62,14.83,27.21,29.7,41.07,44.31,8.6,9.07,17,18.29,25.53,27.46,13.37,14.42,26.83,28.76,40.18,43.2,8,8.61,16,17.18,24,25.77,2.88,3.09,6.08,5.88,9.2,8.87,1.19-1,.58-2.47.65-3.72.33-5.83,0-11.76,1-17.47s-.77-9.1-5.79-11.15c-3.45-1.41-4.24-4.38-4.26-7.47-.05-6.9.12-13.81.46-20.71.27-5.53,3-7.83,8.59-7.75,15.2.23,30.4.48,45.59.63,1.34,0,3.5,1.1,3.9-.94.29-1.45-1.68-2.2-2.84-3.19-8.36-7.11-17.58-13.18-24.24-22.3-3.49-4.77-7.09-9.5-10.63-14.26A49.34,49.34,0,0,0,562.73,719c-10.36-5.58-20.07-12.28-30.51-17.65-21.07-10.83-41.67-22.69-64.33-30.2a132.85,132.85,0,0,1-28.45-13.81c-9.45-5.91-19.51-10.93-28.06-18.18q-7.31-6.18-14-13.11C386.46,614.86,374.84,604.31,364,593c-8.42-8.81-16.8-17.62-23.15-28.35-5.4-9.13-9.34-18.8-13.79-28.31-7.6-16.27-11.24-33.5-13.56-51.12-1.63-1.93.06-4.7-1.68-6.6a243,243,0,0,1-.89-43c.11-1.65.47-3.29.71-4.94,2-2.56.65-5.53,1-8.29,0-1.45,0-2.89,0-4.34,1.74-11.19,6.49-21.24,12-30.9,2.66-4.63,5.27-9.32,8.32-13.71,4.33-6.23,11.27-9.5,18.46-4.53,3.48,2.4,4.66,5.7,4.85,9.39a87.85,87.85,0,0,0,10.82,37.56c2.61,4.84,4.08,10.23,6.91,15,3.75,6.31,8.89,11.58,13.16,17.51l-.05,0c8.7,6.52,17.6,12.79,27.42,17.53,16.76,8.09,34.16,13.35,53.13,12.37,20.8-1.08,41.64-2,62.47-1.31a120.12,120.12,0,0,1,36.89,7c2.79,1,3.67,1,3.42-2.55-.66-9.27.6-18.21,4.9-26.73,2-4.05,3-8.69,4.64-13,7.87-20,19.78-37.73,32.76-54.56,8.45-11,18.86-20.42,28.7-30.29,6.84-6.86,14.09-13.22,21.42-19.43,13.07-11.07,26.8-21.3,42.47-28.64,6.23-2.92,12.13-6.53,18.39-9.47,20.15-9.44,41-17.15,61.77-25,8.74-3.32,17.46-6.67,26.35-9.6,15.17-5,30.29-10.09,46-12.94a119.19,119.19,0,0,1,21.41-2c17.51,0,35-1.23,52.47-1.23,21.15,0,42.32-.41,63.46-1.07,16.74-.53,33.54-1.33,50.21-4.12,22.2-3.72,44.52-6.71,66.17-13.09a181.56,181.56,0,0,0,37-15,151.71,151.71,0,0,0,23.37-16.18c10.14-8.41,21.15-15.72,30.78-24.76a30.64,30.64,0,0,0,3.6-3.51c7.36-9.61,14.32-19.44,20.77-29.74,7.43-11.87,11.13-25.18,16.74-37.73,2.5-5.58,1.69-12.07,2.23-18.17.88-10.07,1.5-20.17,3.09-30.16a38.47,38.47,0,0,1,1.33-5.83c3-9.21,13.46-12.83,21.06-6.72a81.24,81.24,0,0,1,18.7,20.62c5.61,9.09,9.64,18.79,14,28.42,4.74,10.48,11.08,20,17.54,29.55a64,64,0,0,1,9.32,22.88c4.18,19.48,7.82,39,9.38,58.91,1.51,19.23,2.35,38.52,5.1,57.64.57,3.94,1.41,7.84,1.43,11.85,0,1.58,0,3.16,0,4.74.61,4.63.31,9.28.28,13.91a18.41,18.41,0,0,0-.31,3.92c-2.69,16.95-4.14,34.25-9.68,50.51-5.08,14.91-10.14,29.9-16.92,44.22-3.48,7.34-4.67,15.56-7.4,23.22a264,264,0,0,1-20,43.81c-1.85,3.19-3.37,6.58-5.39,9.64-8.81,13.27-17.85,26.41-28.67,38.14a258.26,258.26,0,0,1-45,39.17c-4.69,3.18-9.16,6.68-13.82,9.93-19.11,13.31-37.76,27.48-58.5,38.07-17.74,9-34.36,20.3-52.94,27.65-15.83,6.25-31,14.1-47.13,19.57-11.62,3.93-23.64,6.49-35.41,9.93-14.41,4.22-28.81,8.44-43,13.29-21.18,7.21-42.21,14.84-63.93,20.46-19.15,4.94-38.33,9.46-58,11.95-10,1.27-20.09,2.28-30.16,3.1-11.83,1-23.23,3.79-34.64,6.76a266.9,266.9,0,0,0-45.31,16.52c-7.18,3.34-14.17,7.18-19.82,13.12-6.74,7.09-13.94,13.72-22.58,18.55a7.2,7.2,0,0,0-2.78,2.38c-4,6.77-9.76,12.07-15.72,18.42,8,.27,15.29.24,22.53.37,12.28.22,24.55.8,36.85.77,8.25,0,10.32,2.76,9.85,9.78-.58,8.71.74,17.48-.95,26.18-1,5.26-3,7.78-8.25,8.34-3.08.32-3.8,1.52-3.8,4.33,0,24-.06,47.89.31,71.83.11,7.21-.24,14.41,0,21.63,1.08,30.87.61,61.75.56,92.63,0,4.41,1,7.78,4.9,10.07,2,1.19,3,3.43,4.58,5.13,10.51,11.57,21.33,22.86,31.94,34.34,5.82,6.29,11.22,13,17.58,18.82A7.86,7.86,0,0,1,789.26,1081.13Z" transform="translate(-3.71 -23)"/><path d="M847.39,1275.61q0,6.53,0,13c-.79,1.64,0,3.49-.74,5.14-1,4.1-1.8,8.25-3,12.29-3.19,10.91-10,19.75-18.2,27a91.48,91.48,0,0,1-34.56,18.75c-8.65,2.61-17.54,3.75-26.45,4.83-2.51.82-5.18-.28-7.67.69-34.4,0-68.8,0-103.19.18-3.85,0-4.73-.91-4.72-4.73q.2-117.74,0-235.48c0-3.94,1.07-4.73,4.81-4.7,30.56.25,61.13.2,91.69.4,7.51,0,15,.69,22.53,1.06,1.52.86,3.31-.07,4.85.72,8.39,2.34,16.86,4.29,24.75,8.31,10.55,5.38,19.22,12.15,23.5,23.78,2,5.55,4.24,10.93,4.47,16.91a15.48,15.48,0,0,1,0,6.43l-1.14,10c-.82.81-.88,2.06-1.66,2.89-1.36,3-2.54,6.08-4.11,8.95-5.86,10.79-15.3,17.65-25.84,23.32-.92.5-2.82.59-2.31,2.23.21.7,1.66,1.22,2.64,1.44a83.2,83.2,0,0,1,29.28,12.46c4.51,3.08,7.87,7.12,11.62,10.86,7.85,7.84,10.41,18,12.71,28.36C847.41,1272.31,846.54,1274.08,847.39,1275.61Z" transform="translate(-3.71 -23)"/><path class="cls-2" d="M789.26,1081.13c-8-7-14.68-15.43-22.06-23.1-11.32-11.78-21.64-24.56-33.38-35.87-5.53-5.32-7-10.59-7.05-17.66-.39-57.61-1-115.22-1.58-172.83,0-1.84.2-3.68.31-5.51.27-4.77.25-9.37,7.36-9.08,2.61.11,4.48-2.64,5-5.8,1.68-10.25.79-20.52.76-30.8,0-2.38-1.14-3.65-3.39-4.22a40.8,40.8,0,0,0-9.61-.86l-53-.84c-1.33,0-2.66,0-5.54,0,4.81-4.41,8.58-7.89,12-11.67a34.59,34.59,0,0,0,4.14-5.28c1.37-2.28,2.86-4.48,5.2-5.74,9.71-5.25,17.11-13.19,24.79-20.83,4-3.95,9-6.37,13.89-8.82a260.26,260.26,0,0,1,74-24c17.86-3,36.07-3.39,54-6.41a500.08,500.08,0,0,0,69.11-17.23c26.26-8.37,52.1-18,78.62-25.6,14.58-4.16,29.49-7.21,43.69-12.65,5-1.91,9.94-3.94,14.86-6,12.65-5.4,25.36-10.69,37.89-16.38,5.4-2.45,10.43-5.76,15.6-8.73,16.43-9.42,33.68-17.36,49.59-27.71,5-3.25,9.78-6.81,14.65-10.23,11.12-7.82,22.38-15.47,33.47-23.35a348,348,0,0,0,44.34-38,122.57,122.57,0,0,0,13.44-16.13c7.88-11.21,16.13-22.18,22.69-34.37,5.15-9.58,9-19.66,14-29.25,4.25-8.24,6.4-17.05,9.16-25.73,4.86-15.28,11.12-30.07,17-44.95,6.13-15.61,8.42-31.81,11.32-48,.72-4.08,1.16-8.2,1.73-12.31a1.32,1.32,0,0,1,1.88,0c-1.53,9.08-3,18.16-4.6,27.23-1.88,10.69-3.52,21.54-7.86,31.51-4.64,10.67-7.39,22-12.41,32.49-5.15,10.7-7,22.39-11.31,33.27-3.73,9.5-8.26,18.7-12.81,27.85-5.77,11.61-12.79,22.43-20.2,33.11a270.55,270.55,0,0,1-21.25,26.82,226.4,226.4,0,0,1-27,25.31c-12.14,9.68-25,18.52-37.84,27.24-16.52,11.18-32.56,23.18-50.32,32.38-11.66,6-23.36,12-34.75,18.53-15.45,8.89-32.47,14.26-48.52,21.79-20.93,9.81-43.76,13.43-65.55,20.4-10.78,3.44-21.59,6.85-32.31,10.52-20.8,7.14-41.52,14.52-62.91,19.92-16.14,4.07-32.31,7.89-48.72,10.59-8.86,1.45-17.83,2.45-26.8,3a222.43,222.43,0,0,0-46.8,8A323.26,323.26,0,0,0,731,721.81c-10.32,4.7-18.89,11.76-26.49,20-4.42,4.8-10.07,7.82-15.28,11.48-.88.62-2,1.12-2.5,2-3.36,6-8.21,10.87-13.83,16.62,7.92-.17,14.69.56,21.45.8,11.82.41,23.66.08,35.49.12,8.5,0,10.9,2.26,10.68,10.55-.24,8.87,1,17.78-.78,26.61-1.11,5.54-3.32,9.85-10,9.94-3,0-2.08,2.56-2.09,4.2,0,16.9-.11,33.8,0,50.7.05,6.72-.48,13.45.72,20.19.54,3-.86,6.36-.7,9.53,1.84,35.75.41,71.52.83,107.28a6.25,6.25,0,0,0,1.89,4.93c9.06,8.61,17.25,18,25.75,27.15,7.05,7.55,14.06,15.17,21.23,22.61,3.48,3.61,6.78,7.39,10.18,11.06C788.51,1078.59,789.53,1079.54,789.26,1081.13Z" transform="translate(-3.71 -23)"/><path class="cls-2" d="M1346.2,272.1c-2.72-23-4.88-46.13-6.3-69.29a247.63,247.63,0,0,0-5-37c-1.58-7.3-2.43-14.73-4.29-21.95a75.6,75.6,0,0,0-10.4-23.63c-7.07-10.62-14.37-21.31-18.65-33.51-3.21-9.16-8.5-17.15-13.24-25.48-3.84-6.76-9.62-11.83-15.28-16.89-7.76-6.93-20.48-5.44-22.69,8.07-1.93,11.85-2.72,23.81-3.73,35.75-.39,4.58-.12,9.49-1.69,13.66-5,13.15-8.82,26.83-16.8,38.69-1.45,2.16-2.53,4.56-3.84,6.82a146.85,146.85,0,0,1-18.73,25.4c-5.59,6.1-12.5,11.06-19.18,16.15-9.72,7.4-19.06,15.3-29.17,22.18-13.18,9-27.88,14.84-43.06,19.13a487.39,487.39,0,0,1-92.81,16.28c-26.36,2.17-52.83,1.34-79.23,2.44-21.8.9-43.63.12-65.43,1.42a185.42,185.42,0,0,0-43.78,8.18c-24.59,7.59-48.54,17-72.57,26.14a505.67,505.67,0,0,0-68.8,32.43,111.22,111.22,0,0,0-15.41,10.74C664.06,337.71,652,347.53,641,358.69c-12.94,13.13-26.31,25.77-36.57,41.27-5.47,8.27-10.31,16.92-15.57,25.29-5.72,9.08-8.68,19.08-12.52,28.84-2.33,6-4.65,11.82-5.27,18.25-.45,4.61.17,9.16.75,14.2-29.69-12.35-60.38-8.68-90.8-8.09-11.2.22-22.37,1.11-33.56-.68-11.68-1.86-22.42-6.29-32.95-11.24-8.72-4.1-16.74-9.49-24.53-15.17a19,19,0,0,1-2.73-3c2.08-.16,3.45,1.34,4.8,2.42a134.53,134.53,0,0,0,34.61,19.44,100.48,100.48,0,0,0,42,7.2c20.86-.95,41.77-2.42,62.65-1.32a126.06,126.06,0,0,1,35,6.68c1.34.47,4,2.4,3.63-1.37-1.54-15,5.05-28,10.18-41.34,7.55-19.61,19.57-36.67,32-53.27,6-8,13.44-15,20.5-22.19a406.13,406.13,0,0,1,31.56-29.3,228.81,228.81,0,0,1,42.57-28.13c11.9-6,23.75-12.08,36-17.17,14.22-5.89,28.72-11.16,43.14-16.57,10.44-3.91,20.88-7.86,31.46-11.35,13.06-4.31,26.16-8.63,39.79-10.8,6.91-1.11,14-2.15,20.92-2.07,13.51.16,26.95-1.2,40.44-1,25.32.29,50.62-.81,75.93-1.24a345.56,345.56,0,0,0,50.14-4.08c20.16-3.32,40.4-6.21,60.18-11.38a191.78,191.78,0,0,0,43.91-17.14c13.13-7.18,24-17.3,35.82-26.09,6.77-5,13.06-10.56,19.47-16a28.45,28.45,0,0,0,4.41-5.25c6.58-9,13.07-18,18.78-27.61,6.07-10.25,9.37-21.47,14.24-32.1,3.93-8.57,3.29-17.49,4.38-26.32,1.32-10.73,1.19-21.66,4.23-32.15,2.68-9.19,13.37-13.26,21.18-7.73a75.29,75.29,0,0,1,19.1,20.18c6.84,10.3,10.54,22,16.16,32.82a192.29,192.29,0,0,0,16,26.06c5.49,7.38,7.9,16.42,10,25.46,3.71,15.69,5.79,31.63,8,47.54a188.54,188.54,0,0,1,1.94,23.72c.23,14.7,2.27,29.22,4.09,43.74.48,3.78,1.48,7.6,1.54,11.51A1.33,1.33,0,0,1,1346.2,272.1Z" transform="translate(-3.71 -23)"/><path class="cls-2" d="M640.82,1230.09c.58-39.46,1.21-78.92,1.63-118.38,0-4,.91-5,5.07-5.06,46.51-.91,93-.54,139.55-.87a16.83,16.83,0,0,0,11.18-4.55c3.29-2.83,2.62-9.29-.85-12.18-2.33-2-5.17-3.38-6.6-6.28a91.69,91.69,0,0,1,8,5.27c4.37,3.55,4.07,12-.44,15.39a19.69,19.69,0,0,1-12.34,4.16c-39.75-.11-79.5.09-119.25-.2-7-.05-13.9,2.23-21,.49-2.78-.69-2,2.08-2,3.52-.08,11.21.51,22.44-.16,33.61-1.34,21.91.17,43.86-1,65.73-1.1,20.7-.22,41.37-.74,62,0,1.49.47,3.1-.78,4.38l-.6-.57c-.92-3.54-.24-7.16-.45-10.73v-11.09c0-6.6,0-13.19,0-19.78C640,1233.33,639.79,1231.6,640.82,1230.09Z" transform="translate(-3.71 -23)"/><path class="cls-2" d="M387.29,448.36A36.18,36.18,0,0,1,377,436.42c-9.12-16-18.28-32.17-20.6-51-.31-2.59-.49-5.19-.72-7.78-.48-5.65-4-8.94-9-10.16a10.66,10.66,0,0,0-11.9,5c-8.87,14.21-18.55,28.09-21.13,45.25a1.22,1.22,0,0,1-1.77.11,98.9,98.9,0,0,1,5.89-18.51c4-9.12,9.28-17.51,14.45-26,4.74-7.75,12.72-9.8,20.38-5.15a9.52,9.52,0,0,1,4.29,7.78c.5,9.7,1.95,19.3,5.85,28.1,4.44,10,8,20.56,14.1,29.67C380.09,438.73,384.44,443,387.29,448.36Z" transform="translate(-3.71 -23)"/><path class="cls-3" d="M639.17,1292.89q0-7.85,0-15.68a1,1,0,0,1,1.62,0l.24,0c-.05,4.06-.08,8.11-.18,12.16C640.86,1290.75,641.36,1292.49,639.17,1292.89Z" transform="translate(-3.71 -23)"/><path class="cls-4" d="M1346.34,291.47l0-14.78a1.13,1.13,0,0,1,1.77.09,2.69,2.69,0,0,0,0,.85c.91,4.46.3,9,.36,13.46C1347.91,292,1347.18,292,1346.34,291.47Z" transform="translate(-3.71 -23)"/><path class="cls-5" d="M313.54,422.21c-.68,2.82,2,6.38-1.88,8.48l.24-8.09C312.3,421.84,312.88,421.85,313.54,422.21Z" transform="translate(-3.71 -23)"/><path class="cls-6" d="M170.66,1121.36c.1,5.61.37,11.23-.77,16.79C169.8,1132.54,168.92,1126.89,170.66,1121.36Z" transform="translate(-3.71 -23)"/><path class="cls-2" d="M1348.07,291.42q0-6.9,0-13.79a25.38,25.38,0,0,1,.05,14.75c-.26-.19-.36-.39-.3-.62S1348,291.42,1348.07,291.42Z" transform="translate(-3.71 -23)"/><path class="cls-7" d="M311.84,478.61c2.8,1.63,1.75,4.24,1.68,6.6C310.58,483.61,311.93,480.93,311.84,478.61Z" transform="translate(-3.71 -23)"/><path class="cls-8" d="M1348.07,276.78l-1.77-.09-.1-4.59h1.92Z" transform="translate(-3.71 -23)"/><path class="cls-9" d="M313.54,422.21l-1.64.39c0-1.58,0-3.15-.08-4.73l1.77-.1Z" transform="translate(-3.71 -23)"/><path class="cls-6" d="M1348.07,291.42l.09,1-.06,2.73-1.88,0,.12-3.66Z" transform="translate(-3.71 -23)"/><path class="cls-2" d="M756.81,1357.34a23.31,23.31,0,0,1,7.67-.69C762,1358.19,759.37,1357.16,756.81,1357.34Z" transform="translate(-3.71 -23)"/><path class="cls-2" d="M825.51,1170.22c0-2.14,0-4.29,0-6.43A6.38,6.38,0,0,1,825.51,1170.22Z" transform="translate(-3.71 -23)"/><path class="cls-2" d="M822.71,1183.14a2.29,2.29,0,0,1,1.66-2.89C824.41,1181.55,824.6,1182.94,822.71,1183.14Z" transform="translate(-3.71 -23)"/><path class="cls-2" d="M847.39,1275.61a8.69,8.69,0,0,1-.69-4.85C848,1272.22,847.3,1274,847.39,1275.61Z" transform="translate(-3.71 -23)"/><path class="cls-2" d="M846.67,1293.79a10.62,10.62,0,0,1,.74-5.14C847.24,1290.37,848.08,1292.24,846.67,1293.79Z" transform="translate(-3.71 -23)"/><path class="cls-2" d="M772.78,1114.79c-1.67.07-3.33.19-4.85-.72C769.57,1114.16,771.33,1113.42,772.78,1114.79Z" transform="translate(-3.71 -23)"/><path class="cls-10" d="M680.54,688.82c2.3-16.56,4.72-33.11,6-49.81.78-10.61,1.62-21.27-.6-31.67-1.72-8.1,2.5-13.4,6.53-19.12.7-1,1.71-1.75,2.33-2.77,5.9-9.59,13.66-17.72,21.11-26,8.21-9.13,18.64-15.77,28.77-22.62,6.33-4.28,12.74-8.44,19.12-12.63a368.58,368.58,0,0,1,45.48-25.88c16.56-7.78,34.24-12.35,51.85-17.14,19.86-5.4,39.84-10.08,60.35-12.23,12.67-1.32,25.47-1.14,38.07-3.23,32.52-5.37,65.09-10.17,96.85-19.65,23.86-7.11,47.32-14.92,69.6-26a120,120,0,0,0,14.6-8.68c12-8.24,23.77-16.69,35-26,14.65-12.16,28.17-25.14,39.19-40.87,8.08-11.53,15.8-23.09,22.17-35.69,5.83-11.54,13.11-22.33,19.44-33.63a63.65,63.65,0,0,0,4.65-12c5.92-18.82,13.77-37.06,17.49-56.56.86-4.52,1.65-9.05,2.48-13.57.64-1,.81-2.16,1.6-3a226.72,226.72,0,0,0,4.26-29.08c.32-4.8.14-9.86-4.73-12.56-5.69-3.16-11.18.42-13.27,8.18-4.2,15.53-5.6,31.61-9.19,47.25-.86,3.73-1.87,7.42-2.81,11.12-.93.74-.92,2.06-1.78,2.85-3.46,11.77-6.24,23.8-10.61,35.23-3.47,9.08-6.25,18.69-11.81,26.78-9.57,13.89-15.66,29.75-25.12,43.62-7.65,11.2-15.3,22.58-25.15,32-20.63,19.71-42.89,37.49-68.09,51-21,11.27-43.74,18.35-66.74,24.51-17.34,4.64-34.57,9.58-52.35,12.41-24.24,3.85-48.4,7.95-73,9.48-21.48,1.34-42.4,6.53-63.13,12.3-16.53,4.6-33.17,8.89-49.07,15.45a219.81,219.81,0,0,0-29.5,14.91c-15.87,9.54-31.2,19.88-46.26,30.72-15.42,11.1-29.16,23.46-40.23,39A206.25,206.25,0,0,0,681.8,584c-.51.92-.77,2.3-1.93,2.38-1.59.11-1.68-1.58-2.11-2.61-7.91-18.85-21.86-33.32-36.22-46.92-9.69-9.18-19.34-18.63-29.95-26.89-5-3.88-9.93-7.75-15.72-10.3-4.66-2.05-6.59-5.54-6.68-10.45a48.43,48.43,0,0,0-.83-5.92,9.06,9.06,0,0,1,0-8.31,114.67,114.67,0,0,1,9.88-29.14c5.12-10,9.72-20.4,17.06-29.14a21.3,21.3,0,0,0,1.91-3.15c6.49-11.2,15-20.77,24.19-29.75,4.59-4.47,8.93-9.22,13.42-13.79a345.52,345.52,0,0,1,34.95-30.42c12.88-10,27.71-16.83,42.27-24,15-7.38,30.75-13,46.32-19,26-10,52.16-19.92,79.53-25.84,12.06-2.61,24.41-2.69,36.68-2.92,30.71-.59,61.43-.93,92.14-1.4a535.09,535.09,0,0,0,123.42-16.18c23.61-6,46.23-14.38,65.7-29.65,6.73-5.27,13.61-10.37,20.32-15.68q10.61-8.37,21-17a32.24,32.24,0,0,0,4.69-5.07c6.82-8.84,13.33-17.88,19.49-27.23,4.86-7.37,7.71-15.62,12-23.1,11.15-19.26,11.92-40.56,13.47-61.78.06-.77.08-1.54.21-2.29.18-1-.26-2.35,1.14-2.71s1.91.76,2.47,1.66a81.8,81.8,0,0,1,4.52,7.49c4,8.22,8.47,16.24,11.8,24.8a87.29,87.29,0,0,0,10.84,20.09c11.47,15.65,16.26,33.5,18.16,52.64,1.31,13.27,3.23,26.5,4.49,39.79,1.2,1.39.83,3.08.92,4.68v10.24c.28,2.1-.74,4.41,1,6.28,1.49,14.15,3.42,28.26,4.32,42.47,1,15.59-1.45,30.83-4.48,46a4.21,4.21,0,0,0-.94,2.81c-2.85,11.75-5.73,23.58-10.56,34.64-6,13.64-10.51,27.71-15.37,41.72-2.78,8-5.57,16.14-9.15,23.93a286.75,286.75,0,0,1-28.79,49.42,217.21,217.21,0,0,1-39,41.16,446.19,446.19,0,0,1-41.91,30.43c-5.17,3.26-10,7-15,10.6-16,11.5-33.15,20.85-50.6,29.79-4.9,2.51-9.49,5.62-14.2,8.47-11.37,6.87-23.92,11.07-35.91,16.5-11.16,5.05-22.23,10.38-34.19,13.41-20.21,5.12-40.19,11.09-60.08,17.3-13.6,4.25-27,9.15-40.49,13.74a454.09,454.09,0,0,1-116.91,23.68c-15.41,1-30.15,5.39-44.93,9.5a262.7,262.7,0,0,0-50.67,20.32c-9.09,4.72-16.09,12.06-23.4,19a49.68,49.68,0,0,1-10.92,8.28,26.9,26.9,0,0,0-10.58,10c-2.38,4-5.68,7.05-9.09,10.38-2.45-3-2.21-5.61-.44-8.52,3.08-5.07,6.23-10.14,8.8-15.48,6.12-12.73,7.75-26.76,10.94-40.33C680,691.62,679.38,689.82,680.54,688.82Z" transform="translate(-3.71 -23)"/><path class="cls-1" d="M549.67,1003.33c4.92-12.24,7.64-25.2,12.66-37.45,4.12-10,6.28-20.86,9.94-31.1,3.07-8.59,5.86-17.27,9-25.81,4.6-12.51-3.7-18.14-13.91-19.77-8.66-1.39-14.93,3.38-21.22,8-16,11.75-31.95,23.64-48,35.41-12.91,9.49-25.9,18.88-38.84,28.33-17.88,13.07-35.67,26.25-53.64,39.19-11.75,8.45-23.64,16.72-35,25.68a19.06,19.06,0,0,0-6.47,9.13c-3.92,12.12-7.34,24.4-10.95,36.61a27.21,27.21,0,0,0-2.86,6.43c-2.81,9.21-5.28,18.55-8.5,27.61-5.57,15.65-9.62,31.79-15.29,47.35-4.85,13.32-8,27.11-12.94,40.37-1,.72-1,2-1.8,2.91-3.68,12.51-6.82,25.21-11.27,37.44-2.34,6.45-4.54,12.92-6.45,19.48-5.8,19.82-13.35,39.08-18.77,59-.3,1.1-.16,2.67-1.72,3s-2-1.19-2.63-2.13c-7.24-10.21-14.23-20.61-21.74-30.62-8.32-11.07-16.4-22.3-24.49-33.54-4.46-6.2-12.49-7.32-18.16-2.79-4.53,3.62-3.79,10.76,1.64,16.48a25.79,25.79,0,0,1,2.12,3c7.49,10.61,14.74,21.4,22.53,31.78,8.95,11.94,18,23.82,26.19,36.28.83,3.33-1.83,2.07-3,2.08-11,.1-22,0-33,.09-3.92,0-7.89-.59-11.79.48-4.91.23-9.84.26-14.72.75-3.08.31-3.52-.88-3.54-3.58-.16-22-.54-43.94-.72-65.91q-.47-57.4-.8-114.79c-.09-13.07-.88-26.11-2-39.12a30.85,30.85,0,0,1,.22-7.79c.89-5.65-2.64-10.18-8.28-11.3a41.79,41.79,0,0,0-8.72-.49q-62.68.93-125.37,1.84c-1.18,0-2.36-.1-4.22-.18,3-4.14,6.48-7,9.49-10.27,5.48-6,11.21-11.7,16.93-17.42,15.21-15.24,30.67-30.21,45.34-46,7.16-7.69,14.71-15,22.06-22.53q21.93-22.41,43.46-45.19c7.21-7.64,14.6-15.12,21.79-22.78,14.51-15.46,28.94-31,43.64-46.31,7.6-7.9,15.28-15.72,22.74-23.76,14.1-15.22,28.29-30.37,42.7-45.3,8.15-8.44,16.3-16.87,24.27-25.49q20.33-22,41.14-43.57c8.67-9,17.75-17.6,25.5-27.47a34.36,34.36,0,0,1,4.14-4.13c2.4-2.15,3-7.19,6.44-6.71,2.51.36,4.53,4.14,6.8,6.36,4.56,4.48,8.52,9.53,13.05,14.09C440,736.7,446.68,745,454,752.58c9.37,9.82,18.51,19.84,27.69,29.84,8.34,9.08,16.81,18.06,25.21,27.1,13.39,14.4,26.87,28.72,40.15,43.23,8.44,9.22,17,18.33,25.53,27.48,13.31,14.27,26.65,28.52,39.85,42.9,8.45,9.21,17.05,18.28,25.55,27.44,8.7,9.39,17.44,18.75,26.12,28.16s17.68,19,26.47,28.48,17.48,18.73,26.17,28.14,17.42,19.21,26.49,28.45c5.53,5.63,10,12.27,16.33,17.14a21.48,21.48,0,0,1,3,3.55c-1.69,1.35-3.42.72-5,.73-30.58.17-61.16.36-91.73.37-11.37,0-22.69,1.24-34.09.77-7.72-.31-11.29,4.07-11.42,12.89q-.82,53.24-1.56,106.48-.95,65.46-1.82,130.91c-.05,3.73-.89,5-4.86,4.87-21.34-.6-42.7-.91-64-1.33-1.22,0-2.44-.24-3.66-.36-1.45-3.76-1-7.85-1.24-11.65-.36-6.69-.89-13.41-1.34-20.09-.77-11.39-1.11-22.83-2.5-34.19-.6-4.84-.63-9.77-.83-14.62-.49-11.76-1.34-23.52-2.38-35.21-.58-6.39-.25-13-2.21-19.38-1-3.42-.19-7.31-.25-11-.3-3.82.67-7.7-.6-11.46-1.15-15.45-2.35-30.89-3.43-46.35-1.27-18.07-2.36-36.15-3.69-54.21a30.23,30.23,0,0,1,2.11-13.47c1.76-4.57,2.62-9.49,4.44-14,5.85-14.63,10-29.8,14.79-44.78.32-1,.51-2.07.77-3.11C548.67,1005.4,548.73,1004.1,549.67,1003.33Z" transform="translate(-3.71 -23)"/><path class="cls-11" d="M291.61,1332.55q3.54-11.6,7.07-23.2c1.22-.49,1.1-2,2-2.71q5.58-19.28,11.18-38.55c.81-.82.85-2.11,1.72-2.89,2.92-9.45,5.57-19,8.8-28.33,5.24-15.15,9.23-30.73,14.63-45.75,5.34-14.83,9.09-30.09,14.38-44.89,1-.69,1-2,1.79-2.85q4.59-15.18,9.2-30.36c1-2,1.17-4.33,1.94-6.44h0c1-.72,1-2,1.8-2.87l10.19-34.94a25.66,25.66,0,0,1,2.83-6.41c1.87-6.15,3.81-12.29,5.59-18.47a10.1,10.1,0,0,1,4.15-5.74c13-9.36,25.83-19,38.87-28.33,18.14-13,36.21-26,54-39.44,12.31-9.28,24.88-18.22,37.38-27.26,6.17-4.46,12.48-8.73,18.64-13.21a2.84,2.84,0,0,1,3.71-.06A32.59,32.59,0,0,1,548,935a2.33,2.33,0,0,1-.14,2.91q-5.94,18.93-11.9,37.85a17.29,17.29,0,0,0-2.87,6.38c-3.51,11.09-6.35,22.39-10.72,33.2-.1,2.38-2,4.12-2.3,6.41-4,10.72-6.15,22.1-10.89,32.57-5.63,12.41-6.75,25.26-5.08,38.69,1.25,10,1.52,20.15,2.22,30.23.36,7.12,1.31,14.21,1.43,21.35,0,1.81-.43,3.68.39,5.44h0c1.85,4,.81,8.28,1.36,12.4.29,3.68-.93,7.55,1.29,11,1.26,5.73,1,11.62,1.36,17.39,1.44,24.77,3.38,49.5,4.94,74.26,1,16.34,2,32.7,3.39,49,.44,5,.66,10.05,1.54,15,0,10.32,0,10.32-10.41,10.32-9.52,0-19.07.4-28.57-.09-19-1-38.05-.06-57-1-16.43-.86-32.86.29-49.22-.86s-32.85.11-49.22-.93c-11.05-.7-22.07-.56-33.11-.76C292.29,1335.71,290.06,1335.81,291.61,1332.55Z" transform="translate(-3.71 -23)"/><path class="cls-12" d="M339.46,425.16C341,435.45,342,445.85,344.18,456c3.28,15.47,8.54,30.51,18.55,42.86,9.39,11.59,20.24,22,33.31,29.8a110.69,110.69,0,0,1,13.9,9.76c5.74,4.73,12.61,7.63,19.46,10.2,10.61,4,21.17,8,31.46,12.79a218.53,218.53,0,0,0,35.82,13c22.79,6.1,43.58,15.91,62.13,30.64,9,7.15,16.94,15.47,25.68,22.85,12.74,10.77,21.47,24.5,30.68,38a11.14,11.14,0,0,1,1.2,2.48c5.18,13.87,8.72,28.27,12.73,42.47,4.45,15.75,2.81,32.25,2.44,48.5-2.18.54-2.81-1.31-3.86-2.18-9.15-7.55-19.35-13.85-26.2-24.09-2.49-3.73-5.51-7.26-8.23-10.94-8.06-10.91-19.38-17.68-31-23.84-5.29-2.79-10.44-5.84-15.43-9-12.22-7.78-26-12.51-38.39-19.78-16.69-9.76-35.67-13.9-52.76-22.56-4.23-2.14-8.31-4.6-12.37-7.06-12.56-7.61-24.93-15.26-34.87-26.59a186.6,186.6,0,0,0-18.87-18.63c-7.76-6.64-14.43-14.54-21.71-21.75-12.58-12.47-19.76-28.07-26.63-44-12.38-28.77-14.86-59-13.46-89.65.52-11.38.68-23.13,7-33.42.39-.62.75-1.26,1.59-2.67.52,3.61.92,6.38,1.33,9.16,1.41,2.1.6,4.47.83,6.72C338.78,421,337.83,423.29,339.46,425.16Z" transform="translate(-3.71 -23)"/><path class="cls-12" d="M355,433.56c6.78,16.06,18.38,28.4,32.35,38,23.77,16.26,49.62,27,79.37,25.85,21.31-.84,42.63-1.59,64-1.36,18.92.2,35.8,6.28,52.28,15.27,15,8.19,26.94,19.87,39.88,30.59,11.52,9.54,20.77,21,30.77,31.81,2.26,2.44,3.74,5.6,5.55,8.44,11.08,17.46,13.89,36.46,11.69,56.8-1.43,13.24-2.74,26.51-4.22,39.75-1.12,1-.6,2.78-1.64,3.85-2.66,15.46-4.42,31.06-9.57,46a234.72,234.72,0,0,1-11.72,27.84,2.92,2.92,0,0,1-.13-3.08c1-15.65,1.69-31.53-2.82-46.58-4.21-14-6.41-28.81-12.43-42.15-5.5-12.2-12.63-23.8-21.93-33.63s-18.67-19.4-28.64-28.42a184.2,184.2,0,0,0-53.08-34c-8.75-3.62-18.12-5.69-27.09-8.79-12.28-4.24-24.63-8.2-36.39-14-9.57-4.71-19.87-8-29.88-11.76a64.07,64.07,0,0,1-13.24-7.33c-16.17-11-32.92-21.23-45.14-37a24.73,24.73,0,0,1-2.2-2.94c-9-16-15.29-32.9-16.66-51.38C353.68,434.39,353.38,433.48,355,433.56Z" transform="translate(-3.71 -23)"/><path class="cls-1" d="M699.08,984.15c-3.31-2.91-5.84-5.73-8.4-8.37-7.64-7.91-14.68-16.4-22.24-24.39q-20.1-21.24-39.82-42.83c-8.44-9.2-17.33-18-25.47-27.49a25.31,25.31,0,0,0-2.91-2.85c-4.45-3.73-7.34-7.84-6.85-14.49,1.09-15,1.3-30.07,1.6-45.12.06-3.06,1.13-3.54,3.77-3.45q48.11,1.55,96.23,2.89c2.58.07,3.46.85,3.43,3.47-.51,53.14.74,106.26,1,159.4C699.43,981.77,699.25,982.62,699.08,984.15Z" transform="translate(-3.71 -23)"/><path class="cls-13" d="M291.61,1332.55c-.39,2.8,1.42,2.81,3.42,2.81,11.65,0,23.3.28,35,.55,29.9.71,59.82.91,89.73,1.42,31.59.54,63.18,1.23,94.77,1.79,7.28.13,6.67.94,6.49-6.58,0-1.23,0-2.45,0-3.68a1.26,1.26,0,0,1,1.89,0c.09,11.18.09,11.18-11.07,11.13-7.68,0-15.36.1-23-.11-21.63-.57-43.28-.44-64.88-1.17-16.11-.54-32.24.19-48.3-.81-17-1.06-34.08,0-51.07-1-10.12-.57-20.22-.43-30.33-.65C291.55,1336.23,289.26,1336,291.61,1332.55Z" transform="translate(-3.71 -23)"/><path class="cls-14" d="M522.9,1328.87H521c-.85-11.14-1.77-22.29-2.54-33.44q-3.71-53.88-7.31-107.77c-.33-4.89-.09-9.82-1.12-14.65-1.81-3.19-.57-6.67-.94-10,.23-1.92-.62-4,1-5.7,1.19,1.1.78,2.55.85,3.9.95,16.46,1.65,32.93,2.89,49.37q1.48,19.4,2.72,38.79c1,15.67,2.34,31.32,3.57,47,.36,4.57.11,9.14.53,13.74C521.23,1316.37,521.73,1322.65,522.9,1328.87Z" transform="translate(-3.71 -23)"/><path class="cls-15" d="M533.87,1193.51c2,17.62,3.09,35.33,4.26,53q3.06,46.64,6.16,93.28c-2.32-3.37-1.43-7.37-1.75-11-1.35-15.38-2.09-30.82-3.09-46.24-1.26-19.69-1.9-39.45-4.09-59-1.13-10.12-2.31-20.17-2.23-30.35C533.53,1192.93,533.78,1193,533.87,1193.51Z" transform="translate(-3.71 -23)"/><path class="cls-16" d="M211.3,1336.25c1.58-1.34,3.51-.81,5.27-.83,12.79-.17,25.58-.21,38.37-.4,1.44,0,3.5,1.09,4.18-1.42.69.22,1.64.13,1.82,1.08s-.59,1.23-1.39,1.32c-.15,0-.31,0-.46,0Z" transform="translate(-3.71 -23)"/><path class="cls-17" d="M640.82,1230.09c.6,8.3,0,16.6,0,24.9a1,1,0,0,1-1.57.14q.06-11.28.13-22.56C639.35,1231.44,639.46,1230.4,640.82,1230.09Z" transform="translate(-3.71 -23)"/><path class="cls-18" d="M508.11,1150a155,155,0,0,1-1.82-26.79c1.94,5.56.71,11.45,1.76,17.14C508.63,1143.46,508.13,1146.78,508.11,1150Z" transform="translate(-3.71 -23)"/><path class="cls-18" d="M510.08,1157.3l-.15,5.68a1.06,1.06,0,0,1-1.68-.28l-.15-12.7C511.91,1151.57,509.15,1154.94,510.08,1157.3Z" transform="translate(-3.71 -23)"/><path class="cls-19" d="M1320.53,227.73v-11a1,1,0,0,1,1.68.19v11A1.06,1.06,0,0,1,1320.53,227.73Z" transform="translate(-3.71 -23)"/><path class="cls-20" d="M640.83,1277.21h-1.62c0-3.68,0-7.37,0-11.06a1,1,0,0,1,1.59-.06Z" transform="translate(-3.71 -23)"/><path class="cls-21" d="M640.81,1266.09l-1.59.06v-11l1.57-.14Q640.8,1260.54,640.81,1266.09Z" transform="translate(-3.71 -23)"/><path class="cls-22" d="M588.36,475v8.31A5.4,5.4,0,0,1,588.36,475Z" transform="translate(-3.71 -23)"/><path class="cls-23" d="M337.69,419.46c0-2.41,0-4.81,0-7.22,3.5,1.83,1.1,5,1.71,7.48C338.74,420.17,338.16,420.18,337.69,419.46Z" transform="translate(-3.71 -23)"/><path class="cls-24" d="M655.06,756.15c-.84,2.67-.57,4.6-2.62,5.39-.22.08-1-.4-1-.64C651.39,758.82,653.05,758.07,655.06,756.15Z" transform="translate(-3.71 -23)"/><path class="cls-25" d="M1320.53,227.73l1.69.15c0,1.83.1,3.65.14,5.47C1318.92,232.4,1321,229.64,1320.53,227.73Z" transform="translate(-3.71 -23)"/><path class="cls-26" d="M379.13,1062.37c.44,2.75-1.71,4.35-2.83,6.41C376.55,1066.34,376,1063.53,379.13,1062.37Z" transform="translate(-3.71 -23)"/><path class="cls-27" d="M350.4,1078c.49-2.35-.08-5.17,2.86-6.43C354,1074.42,351.65,1076,350.4,1078Z" transform="translate(-3.71 -23)"/><path class="cls-28" d="M533.06,982.11c.22-2.46-.34-5.27,2.87-6.38C536.28,978.45,534.15,980,533.06,982.11Z" transform="translate(-3.71 -23)"/><path class="cls-29" d="M533.87,1193.51a2.31,2.31,0,0,0-.74-.32l-.19-11C535.06,1185.84,533.79,1189.73,533.87,1193.51Z" transform="translate(-3.71 -23)"/><path class="cls-30" d="M337.69,419.46l1.7.26c0,1.82.05,3.63.07,5.44C336.07,424.13,338.17,421.39,337.69,419.46Z" transform="translate(-3.71 -23)"/><path class="cls-31" d="M520,1021.72a9.35,9.35,0,0,1,2.3-6.41C524.23,1018.4,520.87,1019.61,520,1021.72Z" transform="translate(-3.71 -23)"/><path class="cls-32" d="M1322.22,216.89l-1.68-.19c0-1.51,0-3-.08-4.55C1323.45,212.84,1322,215.19,1322.22,216.89Z" transform="translate(-3.71 -23)"/><path class="cls-33" d="M353.22,430.69c-1.66-.17-2-1.22-1.57-2.59.08-.27.85-.65,1-.54a3.91,3.91,0,0,1,1.56,3.13C353.87,431.21,353.55,431.21,353.22,430.69Z" transform="translate(-3.71 -23)"/><path class="cls-34" d="M680.54,688.82c0,1.55.62,3.34-1.74,3.78C678.69,691,678.38,689.36,680.54,688.82Z" transform="translate(-3.71 -23)"/><path class="cls-35" d="M364.32,1106.58a8.12,8.12,0,0,1-1.94,6.44A11.39,11.39,0,0,1,364.32,1106.58Z" transform="translate(-3.71 -23)"/><path class="cls-36" d="M665,682.52c0-1.54-.7-3.33,1.64-3.85C666.7,680.2,667.38,682,665,682.52Z" transform="translate(-3.71 -23)"/><path class="cls-37" d="M353.22,430.69h1l.83,2.87c-.31.6-.62,1.2-.92,1.81C352.77,434,353.42,432.27,353.22,430.69Z" transform="translate(-3.71 -23)"/><path class="cls-38" d="M311.87,1196.21c-.36-1.57-.24-2.82,1.8-2.91C313.66,1194.64,314,1196.19,311.87,1196.21Z" transform="translate(-3.71 -23)"/><path class="cls-39" d="M353.18,1143.38c.21,1.46.16,2.75-1.79,2.85C351.31,1144.86,351.32,1143.54,353.18,1143.38Z" transform="translate(-3.71 -23)"/><path class="cls-40" d="M547.83,937.88c0-1,.09-1.94.14-2.91.93,0,1.7.32,1.62,1.46S548.74,937.78,547.83,937.88Z" transform="translate(-3.71 -23)"/><path class="cls-35" d="M366.11,1103.72c.18,1.44.21,2.79-1.8,2.87C364.22,1105.2,364.3,1103.92,366.11,1103.72Z" transform="translate(-3.71 -23)"/><path class="cls-41" d="M313.58,1265.2c.21,1.43.11,2.67-1.72,2.89C311.67,1266.67,311.68,1265.37,313.58,1265.2Z" transform="translate(-3.71 -23)"/><path class="cls-42" d="M549.67,1003.33c.16,1.43.38,2.88-1.74,2.95C547.54,1004.73,547.72,1003.51,549.67,1003.33Z" transform="translate(-3.71 -23)"/><path class="cls-43" d="M643.61,753.32c0,1,.09,2,.13,3.08,0,.57-.09,1.14-.14,1.71C642.84,756.49,642.39,754.89,643.61,753.32Z" transform="translate(-3.71 -23)"/><path class="cls-44" d="M1321.26,324.64c-1.38-1.51-.9-2.39.94-2.81C1322.36,322.93,1322.54,324,1321.26,324.64Z" transform="translate(-3.71 -23)"/><path class="cls-45" d="M1282.56,190c.19,1.4.15,2.67-1.6,3C1280.73,191.62,1280.58,190.25,1282.56,190Z" transform="translate(-3.71 -23)"/><path class="cls-46" d="M300.68,1306.64c.15,1.51.09,2.86-2,2.71C298.84,1308.08,299,1306.8,300.68,1306.64Z" transform="translate(-3.71 -23)"/><path class="cls-47" d="M1255,217.76c-.17-1.43-.07-2.69,1.78-2.85C1257,216.34,1256.76,217.51,1255,217.76Z" transform="translate(-3.71 -23)"/><path class="cls-1" d="M809.77,1293c-1.72,15.82-12.1,24.6-25.6,30.15-14,5.75-29.06,6-43.92,6.33-17.51.39-35,.07-52.55.26-2.93,0-3.52-.83-3.51-3.6q.15-42.18,0-84.37c0-2.57.65-3.37,3.29-3.33,24.42.41,48.85-.52,73.27.73,13.54.69,26.45,3.19,37.55,11.46,7.49,5.58,10.79,13.5,11.52,22.63.93,1.16.5,2.85,1.53,4v11.87C810.31,1290.22,810.82,1291.94,809.77,1293Z" transform="translate(-3.71 -23)"/><path class="cls-1" d="M684.25,1175.92c0-10.76,0-21.51,0-32.27,0-2.2.31-3.24,2.94-3.19,23,.45,46.1-1,69.08,1.28,10.18,1,19.75,3.51,27,11.86a21.39,21.39,0,0,1,5,11.38,47.6,47.6,0,0,1-.95,20.12c-2.54,9.15-8.52,15.32-17,19.59-9.07,4.55-18.68,5.91-28.52,6.06-18,.29-35.95.13-53.92.37-3.15.05-3.75-1-3.7-3.85C684.35,1196.82,684.25,1186.37,684.25,1175.92Z" transform="translate(-3.71 -23)"/><path class="cls-48" d="M809.77,1293c-.28-1.63-.69-3.31,1.58-3.9C811.55,1290.72,811.85,1292.36,809.77,1293Z" transform="translate(-3.71 -23)"/><path class="cls-49" d="M811.36,1277.26c-2.23-.66-1.85-2.33-1.53-4C812.26,1273.87,811.38,1275.73,811.36,1277.26Z" transform="translate(-3.71 -23)"/><path d="M403.1,1179.47c-2.1,11.44-4.07,22.9-6.34,34.3-2,10.13-8,13.07-17.47,8.75-1.92-.87-3-.65-4.08,1.23-2.7,4.71-7,6.25-12.14,5.19a4.46,4.46,0,0,0-3.8.85c-4.17,2.9-8.57,3.33-12.86.43-4.62-3.13-5.05-7.84-3.93-12.74,2.75-12.09,5.68-24.14,8.53-36.2.21-.89.29-1.81.44-2.71,1.24-.93.58-2.8,1.82-3.73,3.22-13.42,5.8-27,9.81-40.22,5.48-18,8.67-36.64,14.24-54.63a21.83,21.83,0,0,0,2.72-4.73c2.69-4.74,3.86-10.19,8-14.29,6.63-6.59,18.19-7.54,25-3.58,6.25,3.63,11.93,13.44,9.67,22-1.94,7.36-2.76,15-4.07,22.54-1.13,1-.58,2.79-1.68,3.82q-5.78,32.64-11.56,65.26c-.27,1.51-.43,3-.64,4.56C403.75,1176.68,404.26,1178.43,403.1,1179.47Z" transform="translate(-3.71 -23)"/><path class="cls-50" d="M444.54,1057.72c2-2,3.93-.7,5.88.15,11.55,5.06,22.41,5.34,32.29-4a17.86,17.86,0,0,0,4.16-19.71c-.34-.85-.86-1.63-1.23-2.47-1.09-2.46-.72-4.64,1.82-5.8s4.13.22,5.3,2.3c7.51,13.36,4.17,25.5-7.2,34.32-11.06,8.58-24.09,8.84-36.86,2.47a9.93,9.93,0,0,1-4.23-3.45A2.92,2.92,0,0,1,444.54,1057.72Z" transform="translate(-3.71 -23)"/><path class="cls-51" d="M428,1047.46c-8.53.2-14-2.59-16.05-7.59-.74-1.82-1.14-3.62.59-5,2-1.68,3.35-.15,4.62,1.24,5.71,6.26,12.35,5.32,18.84,1.91,6-3.13,11.75-6.78,14.53-13.47,1.78-4.3,2.95-8.47-1.81-11.91a3.31,3.31,0,0,1-.46-5.26c1.8-2,3.85-1.47,5.75,0a15.56,15.56,0,0,1,3.44,20c-5.26,8.72-12.26,15.59-22.33,18.73A25.87,25.87,0,0,1,428,1047.46Z" transform="translate(-3.71 -23)"/><path class="cls-51" d="M481.61,1010c-7.2,0-12.25-1.41-15.68-6.17-1.34-1.87-2.46-4.51-.14-6.23s4.54-.39,6.06,2a7.93,7.93,0,0,0,6.56,3.67c10.07.7,23.91-9.55,26.38-19.42.82-3.26.67-6-2.35-8.14-2.19-1.58-2.71-3.86-.79-6s3.87-1.15,5.72.34c5.88,4.72,7.34,13.91,2.75,20.83-5,7.61-11.11,14.2-20.22,17.19C486.66,1009.12,483.46,1010.07,481.61,1010Z" transform="translate(-3.71 -23)"/><path class="cls-52" d="M428.07,1060.08c-.95-7,9.57-15.1,17.92-12.16,1.91.67,3.19,2,2.82,4.14-.33,2-1.81,2.66-3.68,2.77a16.86,16.86,0,0,0-4.52.54c-4,1.39-4.73,4.66-1.67,7.56,1.95,1.85,3.58,3.78,1.57,6.27s-4.69,1.46-6.94-.11C430.36,1066.84,427.55,1064.3,428.07,1060.08Z" transform="translate(-3.71 -23)"/><path class="cls-53" d="M508.25,1162.7l1.68.28c0,3.34.07,6.68.11,10-3-.69-1.64-3.14-1.83-4.85A43.12,43.12,0,0,1,508.25,1162.7Z" transform="translate(-3.71 -23)"/><path class="cls-54" d="M380,1075.26c-.28,1.94-.2,4.08-2.72,4.73C376.78,1077.58,378.75,1076.61,380,1075.26Z" transform="translate(-3.71 -23)"/><path class="cls-55" d="M444.54,1057.72c0,1.26,0,2.53-.07,3.79C441.7,1060.2,441.56,1058.93,444.54,1057.72Z" transform="translate(-3.71 -23)"/><path class="cls-56" d="M417,1105.76c-.07-1.55-.7-3.35,1.68-3.82C418.74,1103.5,419.24,1105.24,417,1105.76Z" transform="translate(-3.71 -23)"/><path class="cls-57" d="M403.1,1179.47c0-1.55-.57-3.32,1.67-3.89C404.86,1177.15,405.58,1179,403.1,1179.47Z" transform="translate(-3.71 -23)"/><path class="cls-58" d="M353.27,1174.84c0,1.56.35,3.26-1.82,3.73C351.49,1177.05,350.78,1175.16,353.27,1174.84Z" transform="translate(-3.71 -23)"/></svg>