<?xml version="1.0" standalone="no"?>
<!DOCTYPE svg PUBLIC "-//W3C//DTD SVG 20010904//EN"
 "http://www.w3.org/TR/2001/REC-SVG-20010904/DTD/svg10.dtd">
<svg version="1.0" xmlns="http://www.w3.org/2000/svg"
 width="145.000000pt" height="145.000000pt" viewBox="0 0 145.000000 145.000000"
 preserveAspectRatio="xMidYMid meet">
<metadata>
Created by potrace 1.14, written by Peter Selinger 2001-2017
</metadata>
<g transform="translate(0.000000,145.000000) scale(0.100000,-0.100000)"
fill="#000000" stroke="none">
<path d="M1317 1423 c-2 -4 -8 -26 -11 -48 -13 -72 -71 -133 -147 -156 -19 -5
-81 -12 -139 -15 -58 -3 -121 -10 -140 -16 -65 -20 -150 -68 -186 -106 -36
-37 -76 -110 -68 -123 2 -4 -30 -6 -71 -5 -86 2 -123 22 -141 76 -15 45 -28
48 -44 10 -15 -35 -8 -125 11 -163 28 -51 90 -107 166 -147 43 -23 88 -54 101
-70 l23 -29 -28 2 c-27 2 -28 0 -25 -37 l3 -39 -28 34 c-15 18 -35 41 -43 49
-8 9 -30 33 -48 54 -37 41 -41 40 -92 -18 -19 -23 -47 -53 -62 -69 -15 -15
-36 -38 -46 -52 -11 -13 -49 -57 -85 -97 -105 -118 -156 -182 -150 -191 2 -4
37 -6 76 -5 l72 3 2 -105 c1 -58 2 -117 2 -131 l1 -26 235 -1 235 -1 0 60 c0
32 4 59 8 59 4 0 8 -26 7 -57 l0 -58 65 -1 c68 -1 113 14 124 41 13 36 6 74
-19 93 -21 17 -23 21 -10 32 32 27 7 90 -36 90 -10 0 -19 5 -19 10 0 6 6 10
13 9 36 -4 35 5 -2 49 l-41 48 0 105 c0 58 3 109 7 113 4 3 8 13 9 21 2 15
-13 19 -48 16 -28 -3 -21 16 15 42 40 30 58 37 128 47 91 13 261 79 336 130
87 59 124 109 158 209 23 70 26 91 20 153 -7 88 -10 101 -37 156 -23 45 -43
68 -51 55z m-731 -860 c210 -241 224 -258 224 -263 0 -3 -30 -6 -67 -5 l-68 0
-1 -30 c-1 -16 -2 -79 -3 -138 l-1 -108 -37 3 c-31 3 -37 7 -39 28 -17 232
-16 262 15 358 27 87 27 113 -1 96 -22 -13 -183 -138 -189 -147 -4 -5 -26 -76
-50 -158 -24 -82 -46 -149 -49 -149 -3 0 -14 16 -24 35 -11 19 -25 35 -33 35
-10 0 -7 -12 12 -43 31 -54 31 -56 -2 -54 l-28 2 -3 125 c-2 71 -8 127 -14
131 -5 4 -39 5 -74 4 -68 -2 -68 -2 -24 45 14 15 106 116 199 220 22 25 60 68
83 97 24 29 46 52 49 53 4 0 60 -61 125 -137z m165 -8 c0 -16 1 -55 2 -86 2
-42 -1 -55 -10 -52 -7 3 -13 8 -13 12 0 3 -20 28 -44 55 -24 27 -42 56 -41 65
2 9 4 21 4 27 1 7 20 11 51 11 49 -2 50 -2 51 -32z m43 -285 c-3 -3 -18 -6
-32 -6 -62 -3 -64 -3 -57 -24 3 -11 2 -20 -3 -20 -8 0 -9 26 -3 50 0 3 23 5
50 5 28 0 47 -2 45 -5z m19 -37 c9 -2 22 -13 27 -23 15 -27 -13 -50 -61 -50
-39 0 -39 0 -39 40 0 37 2 40 28 39 15 -1 35 -4 45 -6z m-108 -66 c-9 -47 -16
-47 -14 0 2 23 6 40 11 37 4 -3 6 -19 3 -37z m150 -53 c17 -18 12 -52 -10 -70
-8 -5 -34 -11 -59 -13 l-46 -2 0 51 0 50 49 0 c32 0 55 -6 66 -16z"/>
</g>
</svg>
